<svg width="64" height="64" viewBox="0 0 64 64" fill="none" xmlns="http://www.w3.org/2000/svg">
<circle cx="32" cy="32" r="32" fill="#096A95"/>
<path fill-rule="evenodd" clip-rule="evenodd" d="M23.6 20H26C26.9548 20 27.8705 20.3793 28.5456 21.0544C29.2207 21.7295 29.6 22.6452 29.6 23.6V40.4C29.6 41.3548 29.2207 42.2705 28.5456 42.9456C27.8705 43.6207 26.9548 44 26 44H23.6C22.6452 44 21.7295 43.6207 21.0544 42.9456C20.3793 42.2705 20 41.3548 20 40.4V23.6C20 22.6452 20.3793 21.7295 21.0544 21.0544C21.7295 20.3793 22.6452 20 23.6 20ZM38 20H40.4C41.3548 20 42.2705 20.3793 42.9456 21.0544C43.6207 21.7295 44 22.6452 44 23.6V40.4C44 41.3548 43.6207 42.2705 42.9456 42.9456C42.2705 43.6207 41.3548 44 40.4 44H38C37.0452 44 36.1295 43.6207 35.4544 42.9456C34.7793 42.2705 34.4 41.3548 34.4 40.4V23.6C34.4 22.6452 34.7793 21.7295 35.4544 21.0544C36.1295 20.3793 37.0452 20 38 20Z" fill="white"/>
</svg>
