<svg width="64" height="64" viewBox="0 0 64 64" fill="none" xmlns="http://www.w3.org/2000/svg">
<circle cx="32" cy="32" r="32" fill="#096A95"/>
<path fill-rule="evenodd" clip-rule="evenodd" d="M25.8735 21.1508C25.4068 21.1508 24.9479 21.2697 24.54 21.496C24.1243 21.7081 23.7734 22.0286 23.5245 22.4237C23.2718 22.8248 23.1339 23.2875 23.1257 23.7615L23.1256 40.2242L23.1257 40.2386C23.1339 40.7126 23.2718 41.1753 23.5245 41.5764C23.7734 41.9715 24.1243 42.2919 24.54 42.5041C24.9479 42.7304 25.4068 42.8492 25.8735 42.8492C26.3472 42.8492 26.8128 42.7267 27.2252 42.4937C27.2348 42.4884 27.2443 42.4827 27.2537 42.4769L40.567 34.2427C40.9801 34.034 41.3287 33.7166 41.5751 33.3242C41.8301 32.9183 41.9655 32.4486 41.9655 31.9692C41.9655 31.4897 41.8301 31.02 41.5751 30.6141C41.3284 30.2213 40.9792 29.9036 40.5656 29.6949L27.2513 21.5216C27.2427 21.5164 27.234 21.5112 27.2252 21.5063C26.8128 21.2732 26.3472 21.1508 25.8735 21.1508Z" fill="white"/>
</svg>
