<svg width="691" height="5" viewBox="0 0 691 5" fill="none" xmlns="http://www.w3.org/2000/svg">
<path opacity="0.3" d="M0 0.5C0 0.223858 0.223858 0 0.5 0C0.776142 0 1 0.223858 1 0.5V4.5C1 4.77614 0.776142 5 0.5 5C0.223858 5 0 4.77614 0 4.5V0.5Z" fill="#666F8D"/>
<path opacity="0.3" d="M2.5 0.5C2.5 0.223858 2.72386 0 3 0C3.27614 0 3.5 0.223858 3.5 0.5V4.5C3.5 4.77614 3.27614 5 3 5C2.72386 5 2.5 4.77614 2.5 4.5V0.5Z" fill="#666F8D"/>
<path opacity="0.3" d="M5 0.5C5 0.223858 5.22386 0 5.5 0C5.77614 0 6 0.223858 6 0.5V4.5C6 4.77614 5.77614 5 5.5 5C5.22386 5 5 4.77614 5 4.5V0.5Z" fill="#666F8D"/>
<path opacity="0.3" d="M7.5 0.5C7.5 0.223858 7.72386 0 8 0C8.27614 0 8.5 0.223858 8.5 0.5V4.5C8.5 4.77614 8.27614 5 8 5C7.72386 5 7.5 4.77614 7.5 4.5V0.5Z" fill="#666F8D"/>
<path opacity="0.3" d="M10 0.5C10 0.223858 10.2239 0 10.5 0C10.7761 0 11 0.223858 11 0.5V4.5C11 4.77614 10.7761 5 10.5 5C10.2239 5 10 4.77614 10 4.5V0.5Z" fill="#666F8D"/>
<path opacity="0.3" d="M12.5 0.5C12.5 0.223858 12.7239 0 13 0C13.2761 0 13.5 0.223858 13.5 0.5V4.5C13.5 4.77614 13.2761 5 13 5C12.7239 5 12.5 4.77614 12.5 4.5V0.5Z" fill="#666F8D"/>
<path opacity="0.3" d="M15 0.5C15 0.223858 15.2239 0 15.5 0C15.7761 0 16 0.223858 16 0.5V4.5C16 4.77614 15.7761 5 15.5 5C15.2239 5 15 4.77614 15 4.5V0.5Z" fill="#666F8D"/>
<path opacity="0.3" d="M17.5 0.5C17.5 0.223858 17.7239 0 18 0C18.2761 0 18.5 0.223858 18.5 0.5V4.5C18.5 4.77614 18.2761 5 18 5C17.7239 5 17.5 4.77614 17.5 4.5V0.5Z" fill="#666F8D"/>
<path opacity="0.3" d="M20 0.5C20 0.223858 20.2239 0 20.5 0C20.7761 0 21 0.223858 21 0.5V4.5C21 4.77614 20.7761 5 20.5 5C20.2239 5 20 4.77614 20 4.5V0.5Z" fill="#666F8D"/>
<path opacity="0.3" d="M22.5 0.5C22.5 0.223858 22.7239 0 23 0C23.2761 0 23.5 0.223858 23.5 0.5V4.5C23.5 4.77614 23.2761 5 23 5C22.7239 5 22.5 4.77614 22.5 4.5V0.5Z" fill="#666F8D"/>
<path opacity="0.3" d="M25 0.5C25 0.223858 25.2239 0 25.5 0C25.7761 0 26 0.223858 26 0.5V4.5C26 4.77614 25.7761 5 25.5 5C25.2239 5 25 4.77614 25 4.5V0.5Z" fill="#666F8D"/>
<path opacity="0.3" d="M27.5 0.5C27.5 0.223858 27.7239 0 28 0C28.2761 0 28.5 0.223858 28.5 0.5V4.5C28.5 4.77614 28.2761 5 28 5C27.7239 5 27.5 4.77614 27.5 4.5V0.5Z" fill="#666F8D"/>
<path opacity="0.3" d="M30 0.5C30 0.223858 30.2239 0 30.5 0C30.7761 0 31 0.223858 31 0.5V4.5C31 4.77614 30.7761 5 30.5 5C30.2239 5 30 4.77614 30 4.5V0.5Z" fill="#666F8D"/>
<path opacity="0.3" d="M32.5 0.5C32.5 0.223858 32.7239 0 33 0C33.2761 0 33.5 0.223858 33.5 0.5V4.5C33.5 4.77614 33.2761 5 33 5C32.7239 5 32.5 4.77614 32.5 4.5V0.5Z" fill="#666F8D"/>
<path opacity="0.3" d="M35 0.5C35 0.223858 35.2239 0 35.5 0C35.7761 0 36 0.223858 36 0.5V4.5C36 4.77614 35.7761 5 35.5 5C35.2239 5 35 4.77614 35 4.5V0.5Z" fill="#666F8D"/>
<path opacity="0.3" d="M37.5 0.5C37.5 0.223858 37.7239 0 38 0C38.2761 0 38.5 0.223858 38.5 0.5V4.5C38.5 4.77614 38.2761 5 38 5C37.7239 5 37.5 4.77614 37.5 4.5V0.5Z" fill="#666F8D"/>
<path opacity="0.3" d="M40 0.5C40 0.223858 40.2239 0 40.5 0C40.7761 0 41 0.223858 41 0.5V4.5C41 4.77614 40.7761 5 40.5 5C40.2239 5 40 4.77614 40 4.5V0.5Z" fill="#666F8D"/>
<path opacity="0.3" d="M42.5 0.5C42.5 0.223858 42.7239 0 43 0C43.2761 0 43.5 0.223858 43.5 0.5V4.5C43.5 4.77614 43.2761 5 43 5C42.7239 5 42.5 4.77614 42.5 4.5V0.5Z" fill="#666F8D"/>
<path opacity="0.3" d="M45 0.5C45 0.223858 45.2239 0 45.5 0C45.7761 0 46 0.223858 46 0.5V4.5C46 4.77614 45.7761 5 45.5 5C45.2239 5 45 4.77614 45 4.5V0.5Z" fill="#666F8D"/>
<path opacity="0.3" d="M47.5 0.5C47.5 0.223858 47.7239 0 48 0C48.2761 0 48.5 0.223858 48.5 0.5V4.5C48.5 4.77614 48.2761 5 48 5C47.7239 5 47.5 4.77614 47.5 4.5V0.5Z" fill="#666F8D"/>
<path opacity="0.3" d="M50 0.5C50 0.223858 50.2239 0 50.5 0C50.7761 0 51 0.223858 51 0.5V4.5C51 4.77614 50.7761 5 50.5 5C50.2239 5 50 4.77614 50 4.5V0.5Z" fill="#666F8D"/>
<path opacity="0.3" d="M52.5 0.5C52.5 0.223858 52.7239 0 53 0C53.2761 0 53.5 0.223858 53.5 0.5V4.5C53.5 4.77614 53.2761 5 53 5C52.7239 5 52.5 4.77614 52.5 4.5V0.5Z" fill="#666F8D"/>
<path opacity="0.3" d="M55 0.5C55 0.223858 55.2239 0 55.5 0C55.7761 0 56 0.223858 56 0.5V4.5C56 4.77614 55.7761 5 55.5 5C55.2239 5 55 4.77614 55 4.5V0.5Z" fill="#666F8D"/>
<path opacity="0.3" d="M57.5 0.5C57.5 0.223858 57.7239 0 58 0C58.2761 0 58.5 0.223858 58.5 0.5V4.5C58.5 4.77614 58.2761 5 58 5C57.7239 5 57.5 4.77614 57.5 4.5V0.5Z" fill="#666F8D"/>
<path opacity="0.3" d="M60 0.5C60 0.223858 60.2239 0 60.5 0C60.7761 0 61 0.223858 61 0.5V4.5C61 4.77614 60.7761 5 60.5 5C60.2239 5 60 4.77614 60 4.5V0.5Z" fill="#666F8D"/>
<path opacity="0.3" d="M62.5 0.5C62.5 0.223858 62.7239 0 63 0C63.2761 0 63.5 0.223858 63.5 0.5V4.5C63.5 4.77614 63.2761 5 63 5C62.7239 5 62.5 4.77614 62.5 4.5V0.5Z" fill="#666F8D"/>
<path opacity="0.3" d="M65 0.5C65 0.223858 65.2239 0 65.5 0C65.7761 0 66 0.223858 66 0.5V4.5C66 4.77614 65.7761 5 65.5 5C65.2239 5 65 4.77614 65 4.5V0.5Z" fill="#666F8D"/>
<path opacity="0.3" d="M67.5 0.5C67.5 0.223858 67.7239 0 68 0C68.2761 0 68.5 0.223858 68.5 0.5V4.5C68.5 4.77614 68.2761 5 68 5C67.7239 5 67.5 4.77614 67.5 4.5V0.5Z" fill="#666F8D"/>
<path opacity="0.3" d="M70 0.5C70 0.223858 70.2239 0 70.5 0C70.7761 0 71 0.223858 71 0.5V4.5C71 4.77614 70.7761 5 70.5 5C70.2239 5 70 4.77614 70 4.5V0.5Z" fill="#666F8D"/>
<path opacity="0.3" d="M72.5 0.5C72.5 0.223858 72.7239 0 73 0C73.2761 0 73.5 0.223858 73.5 0.5V4.5C73.5 4.77614 73.2761 5 73 5C72.7239 5 72.5 4.77614 72.5 4.5V0.5Z" fill="#666F8D"/>
<path opacity="0.3" d="M75 0.5C75 0.223858 75.2239 0 75.5 0C75.7761 0 76 0.223858 76 0.5V4.5C76 4.77614 75.7761 5 75.5 5C75.2239 5 75 4.77614 75 4.5V0.5Z" fill="#666F8D"/>
<path opacity="0.3" d="M77.5 0.5C77.5 0.223858 77.7239 0 78 0C78.2761 0 78.5 0.223858 78.5 0.5V4.5C78.5 4.77614 78.2761 5 78 5C77.7239 5 77.5 4.77614 77.5 4.5V0.5Z" fill="#666F8D"/>
<path opacity="0.3" d="M80 0.5C80 0.223858 80.2239 0 80.5 0C80.7761 0 81 0.223858 81 0.5V4.5C81 4.77614 80.7761 5 80.5 5C80.2239 5 80 4.77614 80 4.5V0.5Z" fill="#666F8D"/>
<path opacity="0.3" d="M82.5 0.5C82.5 0.223858 82.7239 0 83 0C83.2761 0 83.5 0.223858 83.5 0.5V4.5C83.5 4.77614 83.2761 5 83 5C82.7239 5 82.5 4.77614 82.5 4.5V0.5Z" fill="#666F8D"/>
<path opacity="0.3" d="M85 0.5C85 0.223858 85.2239 0 85.5 0C85.7761 0 86 0.223858 86 0.5V4.5C86 4.77614 85.7761 5 85.5 5C85.2239 5 85 4.77614 85 4.5V0.5Z" fill="#666F8D"/>
<path opacity="0.3" d="M87.5 0.5C87.5 0.223858 87.7239 0 88 0C88.2761 0 88.5 0.223858 88.5 0.5V4.5C88.5 4.77614 88.2761 5 88 5C87.7239 5 87.5 4.77614 87.5 4.5V0.5Z" fill="#666F8D"/>
<path opacity="0.3" d="M90 0.5C90 0.223858 90.2239 0 90.5 0C90.7761 0 91 0.223858 91 0.5V4.5C91 4.77614 90.7761 5 90.5 5C90.2239 5 90 4.77614 90 4.5V0.5Z" fill="#666F8D"/>
<path opacity="0.3" d="M92.5 0.5C92.5 0.223858 92.7239 0 93 0C93.2761 0 93.5 0.223858 93.5 0.5V4.5C93.5 4.77614 93.2761 5 93 5C92.7239 5 92.5 4.77614 92.5 4.5V0.5Z" fill="#666F8D"/>
<path opacity="0.3" d="M95 0.5C95 0.223858 95.2239 0 95.5 0C95.7761 0 96 0.223858 96 0.5V4.5C96 4.77614 95.7761 5 95.5 5C95.2239 5 95 4.77614 95 4.5V0.5Z" fill="#666F8D"/>
<path opacity="0.3" d="M97.5 0.5C97.5 0.223858 97.7239 0 98 0C98.2761 0 98.5 0.223858 98.5 0.5V4.5C98.5 4.77614 98.2761 5 98 5C97.7239 5 97.5 4.77614 97.5 4.5V0.5Z" fill="#666F8D"/>
<path opacity="0.3" d="M100 0.5C100 0.223858 100.224 0 100.5 0C100.776 0 101 0.223858 101 0.5V4.5C101 4.77614 100.776 5 100.5 5C100.224 5 100 4.77614 100 4.5V0.5Z" fill="#666F8D"/>
<path opacity="0.3" d="M102.5 0.5C102.5 0.223858 102.724 0 103 0C103.276 0 103.5 0.223858 103.5 0.5V4.5C103.5 4.77614 103.276 5 103 5C102.724 5 102.5 4.77614 102.5 4.5V0.5Z" fill="#666F8D"/>
<path opacity="0.3" d="M105 0.5C105 0.223858 105.224 0 105.5 0C105.776 0 106 0.223858 106 0.5V4.5C106 4.77614 105.776 5 105.5 5C105.224 5 105 4.77614 105 4.5V0.5Z" fill="#666F8D"/>
<path opacity="0.3" d="M107.5 0.5C107.5 0.223858 107.724 0 108 0C108.276 0 108.5 0.223858 108.5 0.5V4.5C108.5 4.77614 108.276 5 108 5C107.724 5 107.5 4.77614 107.5 4.5V0.5Z" fill="#666F8D"/>
<path opacity="0.3" d="M110 0.5C110 0.223858 110.224 0 110.5 0C110.776 0 111 0.223858 111 0.5V4.5C111 4.77614 110.776 5 110.5 5C110.224 5 110 4.77614 110 4.5V0.5Z" fill="#666F8D"/>
<path opacity="0.3" d="M112.5 0.5C112.5 0.223858 112.724 0 113 0C113.276 0 113.5 0.223858 113.5 0.5V4.5C113.5 4.77614 113.276 5 113 5C112.724 5 112.5 4.77614 112.5 4.5V0.5Z" fill="#666F8D"/>
<path opacity="0.3" d="M115 0.5C115 0.223858 115.224 0 115.5 0C115.776 0 116 0.223858 116 0.5V4.5C116 4.77614 115.776 5 115.5 5C115.224 5 115 4.77614 115 4.5V0.5Z" fill="#666F8D"/>
<path opacity="0.3" d="M117.5 0.5C117.5 0.223858 117.724 0 118 0C118.276 0 118.5 0.223858 118.5 0.5V4.5C118.5 4.77614 118.276 5 118 5C117.724 5 117.5 4.77614 117.5 4.5V0.5Z" fill="#666F8D"/>
<path opacity="0.3" d="M120 0.5C120 0.223858 120.224 0 120.5 0C120.776 0 121 0.223858 121 0.5V4.5C121 4.77614 120.776 5 120.5 5C120.224 5 120 4.77614 120 4.5V0.5Z" fill="#666F8D"/>
<path opacity="0.3" d="M122.5 0.5C122.5 0.223858 122.724 0 123 0C123.276 0 123.5 0.223858 123.5 0.5V4.5C123.5 4.77614 123.276 5 123 5C122.724 5 122.5 4.77614 122.5 4.5V0.5Z" fill="#666F8D"/>
<path opacity="0.3" d="M125 0.5C125 0.223858 125.224 0 125.5 0C125.776 0 126 0.223858 126 0.5V4.5C126 4.77614 125.776 5 125.5 5C125.224 5 125 4.77614 125 4.5V0.5Z" fill="#666F8D"/>
<path opacity="0.3" d="M127.5 0.5C127.5 0.223858 127.724 0 128 0C128.276 0 128.5 0.223858 128.5 0.5V4.5C128.5 4.77614 128.276 5 128 5C127.724 5 127.5 4.77614 127.5 4.5V0.5Z" fill="#666F8D"/>
<path opacity="0.3" d="M130 0.5C130 0.223858 130.224 0 130.5 0C130.776 0 131 0.223858 131 0.5V4.5C131 4.77614 130.776 5 130.5 5C130.224 5 130 4.77614 130 4.5V0.5Z" fill="#666F8D"/>
<path opacity="0.3" d="M132.5 0.5C132.5 0.223858 132.724 0 133 0C133.276 0 133.5 0.223858 133.5 0.5V4.5C133.5 4.77614 133.276 5 133 5C132.724 5 132.5 4.77614 132.5 4.5V0.5Z" fill="#666F8D"/>
<path opacity="0.3" d="M135 0.5C135 0.223858 135.224 0 135.5 0C135.776 0 136 0.223858 136 0.5V4.5C136 4.77614 135.776 5 135.5 5C135.224 5 135 4.77614 135 4.5V0.5Z" fill="#666F8D"/>
<path opacity="0.3" d="M137.5 0.5C137.5 0.223858 137.724 0 138 0C138.276 0 138.5 0.223858 138.5 0.5V4.5C138.5 4.77614 138.276 5 138 5C137.724 5 137.5 4.77614 137.5 4.5V0.5Z" fill="#666F8D"/>
<path opacity="0.3" d="M140 0.5C140 0.223858 140.224 0 140.5 0C140.776 0 141 0.223858 141 0.5V4.5C141 4.77614 140.776 5 140.5 5C140.224 5 140 4.77614 140 4.5V0.5Z" fill="#666F8D"/>
<path opacity="0.3" d="M142.5 0.5C142.5 0.223858 142.724 0 143 0C143.276 0 143.5 0.223858 143.5 0.5V4.5C143.5 4.77614 143.276 5 143 5C142.724 5 142.5 4.77614 142.5 4.5V0.5Z" fill="#666F8D"/>
<path opacity="0.3" d="M145 0.5C145 0.223858 145.224 0 145.5 0C145.776 0 146 0.223858 146 0.5V4.5C146 4.77614 145.776 5 145.5 5C145.224 5 145 4.77614 145 4.5V0.5Z" fill="#666F8D"/>
<path opacity="0.3" d="M147.5 0.5C147.5 0.223858 147.724 0 148 0C148.276 0 148.5 0.223858 148.5 0.5V4.5C148.5 4.77614 148.276 5 148 5C147.724 5 147.5 4.77614 147.5 4.5V0.5Z" fill="#666F8D"/>
<path opacity="0.3" d="M150 0.5C150 0.223858 150.224 0 150.5 0C150.776 0 151 0.223858 151 0.5V4.5C151 4.77614 150.776 5 150.5 5C150.224 5 150 4.77614 150 4.5V0.5Z" fill="#666F8D"/>
<path opacity="0.3" d="M152.5 0.5C152.5 0.223858 152.724 0 153 0C153.276 0 153.5 0.223858 153.5 0.5V4.5C153.5 4.77614 153.276 5 153 5C152.724 5 152.5 4.77614 152.5 4.5V0.5Z" fill="#666F8D"/>
<path opacity="0.3" d="M155 0.5C155 0.223858 155.224 0 155.5 0C155.776 0 156 0.223858 156 0.5V4.5C156 4.77614 155.776 5 155.5 5C155.224 5 155 4.77614 155 4.5V0.5Z" fill="#666F8D"/>
<path opacity="0.3" d="M157.5 0.5C157.5 0.223858 157.724 0 158 0C158.276 0 158.5 0.223858 158.5 0.5V4.5C158.5 4.77614 158.276 5 158 5C157.724 5 157.5 4.77614 157.5 4.5V0.5Z" fill="#666F8D"/>
<path opacity="0.3" d="M160 0.5C160 0.223858 160.224 0 160.5 0C160.776 0 161 0.223858 161 0.5V4.5C161 4.77614 160.776 5 160.5 5C160.224 5 160 4.77614 160 4.5V0.5Z" fill="#666F8D"/>
<path opacity="0.3" d="M162.5 0.5C162.5 0.223858 162.724 0 163 0C163.276 0 163.5 0.223858 163.5 0.5V4.5C163.5 4.77614 163.276 5 163 5C162.724 5 162.5 4.77614 162.5 4.5V0.5Z" fill="#666F8D"/>
<path opacity="0.3" d="M165 0.5C165 0.223858 165.224 0 165.5 0C165.776 0 166 0.223858 166 0.5V4.5C166 4.77614 165.776 5 165.5 5C165.224 5 165 4.77614 165 4.5V0.5Z" fill="#666F8D"/>
<path opacity="0.3" d="M167.5 0.5C167.5 0.223858 167.724 0 168 0C168.276 0 168.5 0.223858 168.5 0.5V4.5C168.5 4.77614 168.276 5 168 5C167.724 5 167.5 4.77614 167.5 4.5V0.5Z" fill="#666F8D"/>
<path opacity="0.3" d="M170 0.5C170 0.223858 170.224 0 170.5 0C170.776 0 171 0.223858 171 0.5V4.5C171 4.77614 170.776 5 170.5 5C170.224 5 170 4.77614 170 4.5V0.5Z" fill="#666F8D"/>
<path opacity="0.3" d="M172.5 0.5C172.5 0.223858 172.724 0 173 0C173.276 0 173.5 0.223858 173.5 0.5V4.5C173.5 4.77614 173.276 5 173 5C172.724 5 172.5 4.77614 172.5 4.5V0.5Z" fill="#666F8D"/>
<path opacity="0.3" d="M175 0.5C175 0.223858 175.224 0 175.5 0C175.776 0 176 0.223858 176 0.5V4.5C176 4.77614 175.776 5 175.5 5C175.224 5 175 4.77614 175 4.5V0.5Z" fill="#666F8D"/>
<path opacity="0.3" d="M177.5 0.5C177.5 0.223858 177.724 0 178 0C178.276 0 178.5 0.223858 178.5 0.5V4.5C178.5 4.77614 178.276 5 178 5C177.724 5 177.5 4.77614 177.5 4.5V0.5Z" fill="#666F8D"/>
<path opacity="0.3" d="M180 0.5C180 0.223858 180.224 0 180.5 0C180.776 0 181 0.223858 181 0.5V4.5C181 4.77614 180.776 5 180.5 5C180.224 5 180 4.77614 180 4.5V0.5Z" fill="#666F8D"/>
<path opacity="0.3" d="M182.5 0.5C182.5 0.223858 182.724 0 183 0C183.276 0 183.5 0.223858 183.5 0.5V4.5C183.5 4.77614 183.276 5 183 5C182.724 5 182.5 4.77614 182.5 4.5V0.5Z" fill="#666F8D"/>
<path opacity="0.3" d="M185 0.5C185 0.223858 185.224 0 185.5 0C185.776 0 186 0.223858 186 0.5V4.5C186 4.77614 185.776 5 185.5 5C185.224 5 185 4.77614 185 4.5V0.5Z" fill="#666F8D"/>
<path opacity="0.3" d="M187.5 0.5C187.5 0.223858 187.724 0 188 0C188.276 0 188.5 0.223858 188.5 0.5V4.5C188.5 4.77614 188.276 5 188 5C187.724 5 187.5 4.77614 187.5 4.5V0.5Z" fill="#666F8D"/>
<path opacity="0.3" d="M190 0.5C190 0.223858 190.224 0 190.5 0C190.776 0 191 0.223858 191 0.5V4.5C191 4.77614 190.776 5 190.5 5C190.224 5 190 4.77614 190 4.5V0.5Z" fill="#666F8D"/>
<path opacity="0.3" d="M192.5 0.5C192.5 0.223858 192.724 0 193 0C193.276 0 193.5 0.223858 193.5 0.5V4.5C193.5 4.77614 193.276 5 193 5C192.724 5 192.5 4.77614 192.5 4.5V0.5Z" fill="#666F8D"/>
<path opacity="0.3" d="M195 0.5C195 0.223858 195.224 0 195.5 0C195.776 0 196 0.223858 196 0.5V4.5C196 4.77614 195.776 5 195.5 5C195.224 5 195 4.77614 195 4.5V0.5Z" fill="#666F8D"/>
<path opacity="0.3" d="M197.5 0.5C197.5 0.223858 197.724 0 198 0C198.276 0 198.5 0.223858 198.5 0.5V4.5C198.5 4.77614 198.276 5 198 5C197.724 5 197.5 4.77614 197.5 4.5V0.5Z" fill="#666F8D"/>
<path opacity="0.3" d="M200 0.5C200 0.223858 200.224 0 200.5 0C200.776 0 201 0.223858 201 0.5V4.5C201 4.77614 200.776 5 200.5 5C200.224 5 200 4.77614 200 4.5V0.5Z" fill="#666F8D"/>
<path opacity="0.3" d="M202.5 0.5C202.5 0.223858 202.724 0 203 0C203.276 0 203.5 0.223858 203.5 0.5V4.5C203.5 4.77614 203.276 5 203 5C202.724 5 202.5 4.77614 202.5 4.5V0.5Z" fill="#666F8D"/>
<path opacity="0.3" d="M205 0.5C205 0.223858 205.224 0 205.5 0C205.776 0 206 0.223858 206 0.5V4.5C206 4.77614 205.776 5 205.5 5C205.224 5 205 4.77614 205 4.5V0.5Z" fill="#666F8D"/>
<path opacity="0.3" d="M207.5 0.5C207.5 0.223858 207.724 0 208 0C208.276 0 208.5 0.223858 208.5 0.5V4.5C208.5 4.77614 208.276 5 208 5C207.724 5 207.5 4.77614 207.5 4.5V0.5Z" fill="#666F8D"/>
<path opacity="0.3" d="M210 0.5C210 0.223858 210.224 0 210.5 0C210.776 0 211 0.223858 211 0.5V4.5C211 4.77614 210.776 5 210.5 5C210.224 5 210 4.77614 210 4.5V0.5Z" fill="#666F8D"/>
<path opacity="0.3" d="M212.5 0.5C212.5 0.223858 212.724 0 213 0C213.276 0 213.5 0.223858 213.5 0.5V4.5C213.5 4.77614 213.276 5 213 5C212.724 5 212.5 4.77614 212.5 4.5V0.5Z" fill="#666F8D"/>
<path opacity="0.3" d="M215 0.5C215 0.223858 215.224 0 215.5 0C215.776 0 216 0.223858 216 0.5V4.5C216 4.77614 215.776 5 215.5 5C215.224 5 215 4.77614 215 4.5V0.5Z" fill="#666F8D"/>
<path opacity="0.3" d="M217.5 0.5C217.5 0.223858 217.724 0 218 0C218.276 0 218.5 0.223858 218.5 0.5V4.5C218.5 4.77614 218.276 5 218 5C217.724 5 217.5 4.77614 217.5 4.5V0.5Z" fill="#666F8D"/>
<path opacity="0.3" d="M220 0.5C220 0.223858 220.224 0 220.5 0C220.776 0 221 0.223858 221 0.5V4.5C221 4.77614 220.776 5 220.5 5C220.224 5 220 4.77614 220 4.5V0.5Z" fill="#666F8D"/>
<path opacity="0.3" d="M222.5 0.5C222.5 0.223858 222.724 0 223 0C223.276 0 223.5 0.223858 223.5 0.5V4.5C223.5 4.77614 223.276 5 223 5C222.724 5 222.5 4.77614 222.5 4.5V0.5Z" fill="#666F8D"/>
<path opacity="0.3" d="M225 0.5C225 0.223858 225.224 0 225.5 0C225.776 0 226 0.223858 226 0.5V4.5C226 4.77614 225.776 5 225.5 5C225.224 5 225 4.77614 225 4.5V0.5Z" fill="#666F8D"/>
<path opacity="0.3" d="M227.5 0.5C227.5 0.223858 227.724 0 228 0C228.276 0 228.5 0.223858 228.5 0.5V4.5C228.5 4.77614 228.276 5 228 5C227.724 5 227.5 4.77614 227.5 4.5V0.5Z" fill="#666F8D"/>
<path opacity="0.3" d="M230 0.5C230 0.223858 230.224 0 230.5 0C230.776 0 231 0.223858 231 0.5V4.5C231 4.77614 230.776 5 230.5 5C230.224 5 230 4.77614 230 4.5V0.5Z" fill="#666F8D"/>
<path opacity="0.3" d="M232.5 0.5C232.5 0.223858 232.724 0 233 0C233.276 0 233.5 0.223858 233.5 0.5V4.5C233.5 4.77614 233.276 5 233 5C232.724 5 232.5 4.77614 232.5 4.5V0.5Z" fill="#666F8D"/>
<path opacity="0.3" d="M235 0.5C235 0.223858 235.224 0 235.5 0C235.776 0 236 0.223858 236 0.5V4.5C236 4.77614 235.776 5 235.5 5C235.224 5 235 4.77614 235 4.5V0.5Z" fill="#666F8D"/>
<path opacity="0.3" d="M237.5 0.5C237.5 0.223858 237.724 0 238 0C238.276 0 238.5 0.223858 238.5 0.5V4.5C238.5 4.77614 238.276 5 238 5C237.724 5 237.5 4.77614 237.5 4.5V0.5Z" fill="#666F8D"/>
<path opacity="0.3" d="M240 0.5C240 0.223858 240.224 0 240.5 0C240.776 0 241 0.223858 241 0.5V4.5C241 4.77614 240.776 5 240.5 5C240.224 5 240 4.77614 240 4.5V0.5Z" fill="#666F8D"/>
<path opacity="0.3" d="M242.5 0.5C242.5 0.223858 242.724 0 243 0C243.276 0 243.5 0.223858 243.5 0.5V4.5C243.5 4.77614 243.276 5 243 5C242.724 5 242.5 4.77614 242.5 4.5V0.5Z" fill="#666F8D"/>
<path opacity="0.3" d="M245 0.5C245 0.223858 245.224 0 245.5 0C245.776 0 246 0.223858 246 0.5V4.5C246 4.77614 245.776 5 245.5 5C245.224 5 245 4.77614 245 4.5V0.5Z" fill="#666F8D"/>
<path opacity="0.3" d="M247.5 0.5C247.5 0.223858 247.724 0 248 0C248.276 0 248.5 0.223858 248.5 0.5V4.5C248.5 4.77614 248.276 5 248 5C247.724 5 247.5 4.77614 247.5 4.5V0.5Z" fill="#666F8D"/>
<path opacity="0.3" d="M250 0.5C250 0.223858 250.224 0 250.5 0C250.776 0 251 0.223858 251 0.5V4.5C251 4.77614 250.776 5 250.5 5C250.224 5 250 4.77614 250 4.5V0.5Z" fill="#666F8D"/>
<path opacity="0.3" d="M252.5 0.5C252.5 0.223858 252.724 0 253 0C253.276 0 253.5 0.223858 253.5 0.5V4.5C253.5 4.77614 253.276 5 253 5C252.724 5 252.5 4.77614 252.5 4.5V0.5Z" fill="#666F8D"/>
<path opacity="0.3" d="M255 0.5C255 0.223858 255.224 0 255.5 0C255.776 0 256 0.223858 256 0.5V4.5C256 4.77614 255.776 5 255.5 5C255.224 5 255 4.77614 255 4.5V0.5Z" fill="#666F8D"/>
<path opacity="0.3" d="M257.5 0.5C257.5 0.223858 257.724 0 258 0C258.276 0 258.5 0.223858 258.5 0.5V4.5C258.5 4.77614 258.276 5 258 5C257.724 5 257.5 4.77614 257.5 4.5V0.5Z" fill="#666F8D"/>
<path opacity="0.3" d="M260 0.5C260 0.223858 260.224 0 260.5 0C260.776 0 261 0.223858 261 0.5V4.5C261 4.77614 260.776 5 260.5 5C260.224 5 260 4.77614 260 4.5V0.5Z" fill="#666F8D"/>
<path opacity="0.3" d="M262.5 0.5C262.5 0.223858 262.724 0 263 0C263.276 0 263.5 0.223858 263.5 0.5V4.5C263.5 4.77614 263.276 5 263 5C262.724 5 262.5 4.77614 262.5 4.5V0.5Z" fill="#666F8D"/>
<path opacity="0.3" d="M265 0.5C265 0.223858 265.224 0 265.5 0C265.776 0 266 0.223858 266 0.5V4.5C266 4.77614 265.776 5 265.5 5C265.224 5 265 4.77614 265 4.5V0.5Z" fill="#666F8D"/>
<path opacity="0.3" d="M267.5 0.5C267.5 0.223858 267.724 0 268 0C268.276 0 268.5 0.223858 268.5 0.5V4.5C268.5 4.77614 268.276 5 268 5C267.724 5 267.5 4.77614 267.5 4.5V0.5Z" fill="#666F8D"/>
<path opacity="0.3" d="M270 0.5C270 0.223858 270.224 0 270.5 0C270.776 0 271 0.223858 271 0.5V4.5C271 4.77614 270.776 5 270.5 5C270.224 5 270 4.77614 270 4.5V0.5Z" fill="#666F8D"/>
<path opacity="0.3" d="M272.5 0.5C272.5 0.223858 272.724 0 273 0C273.276 0 273.5 0.223858 273.5 0.5V4.5C273.5 4.77614 273.276 5 273 5C272.724 5 272.5 4.77614 272.5 4.5V0.5Z" fill="#666F8D"/>
<path opacity="0.3" d="M275 0.5C275 0.223858 275.224 0 275.5 0C275.776 0 276 0.223858 276 0.5V4.5C276 4.77614 275.776 5 275.5 5C275.224 5 275 4.77614 275 4.5V0.5Z" fill="#666F8D"/>
<path opacity="0.3" d="M277.5 0.5C277.5 0.223858 277.724 0 278 0C278.276 0 278.5 0.223858 278.5 0.5V4.5C278.5 4.77614 278.276 5 278 5C277.724 5 277.5 4.77614 277.5 4.5V0.5Z" fill="#666F8D"/>
<path opacity="0.3" d="M280 0.5C280 0.223858 280.224 0 280.5 0C280.776 0 281 0.223858 281 0.5V4.5C281 4.77614 280.776 5 280.5 5C280.224 5 280 4.77614 280 4.5V0.5Z" fill="#666F8D"/>
<path opacity="0.3" d="M282.5 0.5C282.5 0.223858 282.724 0 283 0C283.276 0 283.5 0.223858 283.5 0.5V4.5C283.5 4.77614 283.276 5 283 5C282.724 5 282.5 4.77614 282.5 4.5V0.5Z" fill="#666F8D"/>
<path opacity="0.3" d="M285 0.5C285 0.223858 285.224 0 285.5 0C285.776 0 286 0.223858 286 0.5V4.5C286 4.77614 285.776 5 285.5 5C285.224 5 285 4.77614 285 4.5V0.5Z" fill="#666F8D"/>
<path opacity="0.3" d="M287.5 0.5C287.5 0.223858 287.724 0 288 0C288.276 0 288.5 0.223858 288.5 0.5V4.5C288.5 4.77614 288.276 5 288 5C287.724 5 287.5 4.77614 287.5 4.5V0.5Z" fill="#666F8D"/>
<path opacity="0.3" d="M290 0.5C290 0.223858 290.224 0 290.5 0C290.776 0 291 0.223858 291 0.5V4.5C291 4.77614 290.776 5 290.5 5C290.224 5 290 4.77614 290 4.5V0.5Z" fill="#666F8D"/>
<path opacity="0.3" d="M292.5 0.5C292.5 0.223858 292.724 0 293 0C293.276 0 293.5 0.223858 293.5 0.5V4.5C293.5 4.77614 293.276 5 293 5C292.724 5 292.5 4.77614 292.5 4.5V0.5Z" fill="#666F8D"/>
<path opacity="0.3" d="M295 0.5C295 0.223858 295.224 0 295.5 0C295.776 0 296 0.223858 296 0.5V4.5C296 4.77614 295.776 5 295.5 5C295.224 5 295 4.77614 295 4.5V0.5Z" fill="#666F8D"/>
<path opacity="0.3" d="M297.5 0.5C297.5 0.223858 297.724 0 298 0C298.276 0 298.5 0.223858 298.5 0.5V4.5C298.5 4.77614 298.276 5 298 5C297.724 5 297.5 4.77614 297.5 4.5V0.5Z" fill="#666F8D"/>
<path opacity="0.3" d="M300 0.5C300 0.223858 300.224 0 300.5 0C300.776 0 301 0.223858 301 0.5V4.5C301 4.77614 300.776 5 300.5 5C300.224 5 300 4.77614 300 4.5V0.5Z" fill="#666F8D"/>
<path opacity="0.3" d="M302.5 0.5C302.5 0.223858 302.724 0 303 0C303.276 0 303.5 0.223858 303.5 0.5V4.5C303.5 4.77614 303.276 5 303 5C302.724 5 302.5 4.77614 302.5 4.5V0.5Z" fill="#666F8D"/>
<path opacity="0.3" d="M305 0.5C305 0.223858 305.224 0 305.5 0C305.776 0 306 0.223858 306 0.5V4.5C306 4.77614 305.776 5 305.5 5C305.224 5 305 4.77614 305 4.5V0.5Z" fill="#666F8D"/>
<path opacity="0.3" d="M307.5 0.5C307.5 0.223858 307.724 0 308 0C308.276 0 308.5 0.223858 308.5 0.5V4.5C308.5 4.77614 308.276 5 308 5C307.724 5 307.5 4.77614 307.5 4.5V0.5Z" fill="#666F8D"/>
<path opacity="0.3" d="M310 0.5C310 0.223858 310.224 0 310.5 0C310.776 0 311 0.223858 311 0.5V4.5C311 4.77614 310.776 5 310.5 5C310.224 5 310 4.77614 310 4.5V0.5Z" fill="#666F8D"/>
<path opacity="0.3" d="M312.5 0.5C312.5 0.223858 312.724 0 313 0C313.276 0 313.5 0.223858 313.5 0.5V4.5C313.5 4.77614 313.276 5 313 5C312.724 5 312.5 4.77614 312.5 4.5V0.5Z" fill="#666F8D"/>
<path opacity="0.3" d="M315 0.5C315 0.223858 315.224 0 315.5 0C315.776 0 316 0.223858 316 0.5V4.5C316 4.77614 315.776 5 315.5 5C315.224 5 315 4.77614 315 4.5V0.5Z" fill="#666F8D"/>
<path opacity="0.3" d="M317.5 0.5C317.5 0.223858 317.724 0 318 0C318.276 0 318.5 0.223858 318.5 0.5V4.5C318.5 4.77614 318.276 5 318 5C317.724 5 317.5 4.77614 317.5 4.5V0.5Z" fill="#666F8D"/>
<path opacity="0.3" d="M320 0.5C320 0.223858 320.224 0 320.5 0C320.776 0 321 0.223858 321 0.5V4.5C321 4.77614 320.776 5 320.5 5C320.224 5 320 4.77614 320 4.5V0.5Z" fill="#666F8D"/>
<path opacity="0.3" d="M322.5 0.5C322.5 0.223858 322.724 0 323 0C323.276 0 323.5 0.223858 323.5 0.5V4.5C323.5 4.77614 323.276 5 323 5C322.724 5 322.5 4.77614 322.5 4.5V0.5Z" fill="#666F8D"/>
<path opacity="0.3" d="M325 0.5C325 0.223858 325.224 0 325.5 0C325.776 0 326 0.223858 326 0.5V4.5C326 4.77614 325.776 5 325.5 5C325.224 5 325 4.77614 325 4.5V0.5Z" fill="#666F8D"/>
<path opacity="0.3" d="M327.5 0.5C327.5 0.223858 327.724 0 328 0C328.276 0 328.5 0.223858 328.5 0.5V4.5C328.5 4.77614 328.276 5 328 5C327.724 5 327.5 4.77614 327.5 4.5V0.5Z" fill="#666F8D"/>
<path opacity="0.3" d="M330 0.5C330 0.223858 330.224 0 330.5 0C330.776 0 331 0.223858 331 0.5V4.5C331 4.77614 330.776 5 330.5 5C330.224 5 330 4.77614 330 4.5V0.5Z" fill="#666F8D"/>
<path opacity="0.3" d="M332.5 0.5C332.5 0.223858 332.724 0 333 0C333.276 0 333.5 0.223858 333.5 0.5V4.5C333.5 4.77614 333.276 5 333 5C332.724 5 332.5 4.77614 332.5 4.5V0.5Z" fill="#666F8D"/>
<path opacity="0.3" d="M335 0.5C335 0.223858 335.224 0 335.5 0C335.776 0 336 0.223858 336 0.5V4.5C336 4.77614 335.776 5 335.5 5C335.224 5 335 4.77614 335 4.5V0.5Z" fill="#666F8D"/>
<path opacity="0.3" d="M337.5 0.5C337.5 0.223858 337.724 0 338 0C338.276 0 338.5 0.223858 338.5 0.5V4.5C338.5 4.77614 338.276 5 338 5C337.724 5 337.5 4.77614 337.5 4.5V0.5Z" fill="#666F8D"/>
<path opacity="0.3" d="M340 0.5C340 0.223858 340.224 0 340.5 0C340.776 0 341 0.223858 341 0.5V4.5C341 4.77614 340.776 5 340.5 5C340.224 5 340 4.77614 340 4.5V0.5Z" fill="#666F8D"/>
<path opacity="0.3" d="M342.5 0.5C342.5 0.223858 342.724 0 343 0C343.276 0 343.5 0.223858 343.5 0.5V4.5C343.5 4.77614 343.276 5 343 5C342.724 5 342.5 4.77614 342.5 4.5V0.5Z" fill="#666F8D"/>
<path opacity="0.3" d="M345 0.5C345 0.223858 345.224 0 345.5 0C345.776 0 346 0.223858 346 0.5V4.5C346 4.77614 345.776 5 345.5 5C345.224 5 345 4.77614 345 4.5V0.5Z" fill="#666F8D"/>
<path opacity="0.3" d="M347.5 0.5C347.5 0.223858 347.724 0 348 0C348.276 0 348.5 0.223858 348.5 0.5V4.5C348.5 4.77614 348.276 5 348 5C347.724 5 347.5 4.77614 347.5 4.5V0.5Z" fill="#666F8D"/>
<path opacity="0.3" d="M350 0.5C350 0.223858 350.224 0 350.5 0C350.776 0 351 0.223858 351 0.5V4.5C351 4.77614 350.776 5 350.5 5C350.224 5 350 4.77614 350 4.5V0.5Z" fill="#666F8D"/>
<path opacity="0.3" d="M352.5 0.5C352.5 0.223858 352.724 0 353 0C353.276 0 353.5 0.223858 353.5 0.5V4.5C353.5 4.77614 353.276 5 353 5C352.724 5 352.5 4.77614 352.5 4.5V0.5Z" fill="#666F8D"/>
<path opacity="0.3" d="M355 0.5C355 0.223858 355.224 0 355.5 0C355.776 0 356 0.223858 356 0.5V4.5C356 4.77614 355.776 5 355.5 5C355.224 5 355 4.77614 355 4.5V0.5Z" fill="#666F8D"/>
<path opacity="0.3" d="M357.5 0.5C357.5 0.223858 357.724 0 358 0C358.276 0 358.5 0.223858 358.5 0.5V4.5C358.5 4.77614 358.276 5 358 5C357.724 5 357.5 4.77614 357.5 4.5V0.5Z" fill="#666F8D"/>
<path opacity="0.3" d="M360 0.5C360 0.223858 360.224 0 360.5 0C360.776 0 361 0.223858 361 0.5V4.5C361 4.77614 360.776 5 360.5 5C360.224 5 360 4.77614 360 4.5V0.5Z" fill="#666F8D"/>
<path opacity="0.3" d="M362.5 0.5C362.5 0.223858 362.724 0 363 0C363.276 0 363.5 0.223858 363.5 0.5V4.5C363.5 4.77614 363.276 5 363 5C362.724 5 362.5 4.77614 362.5 4.5V0.5Z" fill="#666F8D"/>
<path opacity="0.3" d="M365 0.5C365 0.223858 365.224 0 365.5 0C365.776 0 366 0.223858 366 0.5V4.5C366 4.77614 365.776 5 365.5 5C365.224 5 365 4.77614 365 4.5V0.5Z" fill="#666F8D"/>
<path opacity="0.3" d="M367.5 0.5C367.5 0.223858 367.724 0 368 0C368.276 0 368.5 0.223858 368.5 0.5V4.5C368.5 4.77614 368.276 5 368 5C367.724 5 367.5 4.77614 367.5 4.5V0.5Z" fill="#666F8D"/>
<path opacity="0.3" d="M370 0.5C370 0.223858 370.224 0 370.5 0C370.776 0 371 0.223858 371 0.5V4.5C371 4.77614 370.776 5 370.5 5C370.224 5 370 4.77614 370 4.5V0.5Z" fill="#666F8D"/>
<path opacity="0.3" d="M372.5 0.5C372.5 0.223858 372.724 0 373 0C373.276 0 373.5 0.223858 373.5 0.5V4.5C373.5 4.77614 373.276 5 373 5C372.724 5 372.5 4.77614 372.5 4.5V0.5Z" fill="#666F8D"/>
<path opacity="0.3" d="M375 0.5C375 0.223858 375.224 0 375.5 0C375.776 0 376 0.223858 376 0.5V4.5C376 4.77614 375.776 5 375.5 5C375.224 5 375 4.77614 375 4.5V0.5Z" fill="#666F8D"/>
<path opacity="0.3" d="M377.5 0.5C377.5 0.223858 377.724 0 378 0C378.276 0 378.5 0.223858 378.5 0.5V4.5C378.5 4.77614 378.276 5 378 5C377.724 5 377.5 4.77614 377.5 4.5V0.5Z" fill="#666F8D"/>
<path opacity="0.3" d="M380 0.5C380 0.223858 380.224 0 380.5 0C380.776 0 381 0.223858 381 0.5V4.5C381 4.77614 380.776 5 380.5 5C380.224 5 380 4.77614 380 4.5V0.5Z" fill="#666F8D"/>
<path opacity="0.3" d="M382.5 0.5C382.5 0.223858 382.724 0 383 0C383.276 0 383.5 0.223858 383.5 0.5V4.5C383.5 4.77614 383.276 5 383 5C382.724 5 382.5 4.77614 382.5 4.5V0.5Z" fill="#666F8D"/>
<path opacity="0.3" d="M385 0.5C385 0.223858 385.224 0 385.5 0C385.776 0 386 0.223858 386 0.5V4.5C386 4.77614 385.776 5 385.5 5C385.224 5 385 4.77614 385 4.5V0.5Z" fill="#666F8D"/>
<path opacity="0.3" d="M387.5 0.5C387.5 0.223858 387.724 0 388 0C388.276 0 388.5 0.223858 388.5 0.5V4.5C388.5 4.77614 388.276 5 388 5C387.724 5 387.5 4.77614 387.5 4.5V0.5Z" fill="#666F8D"/>
<path opacity="0.3" d="M390 0.5C390 0.223858 390.224 0 390.5 0C390.776 0 391 0.223858 391 0.5V4.5C391 4.77614 390.776 5 390.5 5C390.224 5 390 4.77614 390 4.5V0.5Z" fill="#666F8D"/>
<path opacity="0.3" d="M392.5 0.5C392.5 0.223858 392.724 0 393 0C393.276 0 393.5 0.223858 393.5 0.5V4.5C393.5 4.77614 393.276 5 393 5C392.724 5 392.5 4.77614 392.5 4.5V0.5Z" fill="#666F8D"/>
<path opacity="0.3" d="M395 0.5C395 0.223858 395.224 0 395.5 0C395.776 0 396 0.223858 396 0.5V4.5C396 4.77614 395.776 5 395.5 5C395.224 5 395 4.77614 395 4.5V0.5Z" fill="#666F8D"/>
<path opacity="0.3" d="M397.5 0.5C397.5 0.223858 397.724 0 398 0C398.276 0 398.5 0.223858 398.5 0.5V4.5C398.5 4.77614 398.276 5 398 5C397.724 5 397.5 4.77614 397.5 4.5V0.5Z" fill="#666F8D"/>
<path opacity="0.3" d="M400 0.5C400 0.223858 400.224 0 400.5 0C400.776 0 401 0.223858 401 0.5V4.5C401 4.77614 400.776 5 400.5 5C400.224 5 400 4.77614 400 4.5V0.5Z" fill="#666F8D"/>
<path opacity="0.3" d="M402.5 0.5C402.5 0.223858 402.724 0 403 0C403.276 0 403.5 0.223858 403.5 0.5V4.5C403.5 4.77614 403.276 5 403 5C402.724 5 402.5 4.77614 402.5 4.5V0.5Z" fill="#666F8D"/>
<path opacity="0.3" d="M405 0.5C405 0.223858 405.224 0 405.5 0C405.776 0 406 0.223858 406 0.5V4.5C406 4.77614 405.776 5 405.5 5C405.224 5 405 4.77614 405 4.5V0.5Z" fill="#666F8D"/>
<path opacity="0.3" d="M407.5 0.5C407.5 0.223858 407.724 0 408 0C408.276 0 408.5 0.223858 408.5 0.5V4.5C408.5 4.77614 408.276 5 408 5C407.724 5 407.5 4.77614 407.5 4.5V0.5Z" fill="#666F8D"/>
<path opacity="0.3" d="M410 0.5C410 0.223858 410.224 0 410.5 0C410.776 0 411 0.223858 411 0.5V4.5C411 4.77614 410.776 5 410.5 5C410.224 5 410 4.77614 410 4.5V0.5Z" fill="#666F8D"/>
<path opacity="0.3" d="M412.5 0.5C412.5 0.223858 412.724 0 413 0C413.276 0 413.5 0.223858 413.5 0.5V4.5C413.5 4.77614 413.276 5 413 5C412.724 5 412.5 4.77614 412.5 4.5V0.5Z" fill="#666F8D"/>
<path opacity="0.3" d="M415 0.5C415 0.223858 415.224 0 415.5 0C415.776 0 416 0.223858 416 0.5V4.5C416 4.77614 415.776 5 415.5 5C415.224 5 415 4.77614 415 4.5V0.5Z" fill="#666F8D"/>
<path opacity="0.3" d="M417.5 0.5C417.5 0.223858 417.724 0 418 0C418.276 0 418.5 0.223858 418.5 0.5V4.5C418.5 4.77614 418.276 5 418 5C417.724 5 417.5 4.77614 417.5 4.5V0.5Z" fill="#666F8D"/>
<path opacity="0.3" d="M420 0.5C420 0.223858 420.224 0 420.5 0C420.776 0 421 0.223858 421 0.5V4.5C421 4.77614 420.776 5 420.5 5C420.224 5 420 4.77614 420 4.5V0.5Z" fill="#666F8D"/>
<path opacity="0.3" d="M422.5 0.5C422.5 0.223858 422.724 0 423 0C423.276 0 423.5 0.223858 423.5 0.5V4.5C423.5 4.77614 423.276 5 423 5C422.724 5 422.5 4.77614 422.5 4.5V0.5Z" fill="#666F8D"/>
<path opacity="0.3" d="M425 0.5C425 0.223858 425.224 0 425.5 0C425.776 0 426 0.223858 426 0.5V4.5C426 4.77614 425.776 5 425.5 5C425.224 5 425 4.77614 425 4.5V0.5Z" fill="#666F8D"/>
<path opacity="0.3" d="M427.5 0.5C427.5 0.223858 427.724 0 428 0C428.276 0 428.5 0.223858 428.5 0.5V4.5C428.5 4.77614 428.276 5 428 5C427.724 5 427.5 4.77614 427.5 4.5V0.5Z" fill="#666F8D"/>
<path opacity="0.3" d="M430 0.5C430 0.223858 430.224 0 430.5 0C430.776 0 431 0.223858 431 0.5V4.5C431 4.77614 430.776 5 430.5 5C430.224 5 430 4.77614 430 4.5V0.5Z" fill="#666F8D"/>
<path opacity="0.3" d="M432.5 0.5C432.5 0.223858 432.724 0 433 0C433.276 0 433.5 0.223858 433.5 0.5V4.5C433.5 4.77614 433.276 5 433 5C432.724 5 432.5 4.77614 432.5 4.5V0.5Z" fill="#666F8D"/>
<path opacity="0.3" d="M435 0.5C435 0.223858 435.224 0 435.5 0C435.776 0 436 0.223858 436 0.5V4.5C436 4.77614 435.776 5 435.5 5C435.224 5 435 4.77614 435 4.5V0.5Z" fill="#666F8D"/>
<path opacity="0.3" d="M437.5 0.5C437.5 0.223858 437.724 0 438 0C438.276 0 438.5 0.223858 438.5 0.5V4.5C438.5 4.77614 438.276 5 438 5C437.724 5 437.5 4.77614 437.5 4.5V0.5Z" fill="#666F8D"/>
<path opacity="0.3" d="M440 0.5C440 0.223858 440.224 0 440.5 0C440.776 0 441 0.223858 441 0.5V4.5C441 4.77614 440.776 5 440.5 5C440.224 5 440 4.77614 440 4.5V0.5Z" fill="#666F8D"/>
<path opacity="0.3" d="M442.5 0.5C442.5 0.223858 442.724 0 443 0C443.276 0 443.5 0.223858 443.5 0.5V4.5C443.5 4.77614 443.276 5 443 5C442.724 5 442.5 4.77614 442.5 4.5V0.5Z" fill="#666F8D"/>
<path opacity="0.3" d="M445 0.5C445 0.223858 445.224 0 445.5 0C445.776 0 446 0.223858 446 0.5V4.5C446 4.77614 445.776 5 445.5 5C445.224 5 445 4.77614 445 4.5V0.5Z" fill="#666F8D"/>
<path opacity="0.3" d="M447.5 0.5C447.5 0.223858 447.724 0 448 0C448.276 0 448.5 0.223858 448.5 0.5V4.5C448.5 4.77614 448.276 5 448 5C447.724 5 447.5 4.77614 447.5 4.5V0.5Z" fill="#666F8D"/>
<path opacity="0.3" d="M450 0.5C450 0.223858 450.224 0 450.5 0C450.776 0 451 0.223858 451 0.5V4.5C451 4.77614 450.776 5 450.5 5C450.224 5 450 4.77614 450 4.5V0.5Z" fill="#666F8D"/>
<path opacity="0.3" d="M452.5 0.5C452.5 0.223858 452.724 0 453 0C453.276 0 453.5 0.223858 453.5 0.5V4.5C453.5 4.77614 453.276 5 453 5C452.724 5 452.5 4.77614 452.5 4.5V0.5Z" fill="#666F8D"/>
<path opacity="0.3" d="M455 0.5C455 0.223858 455.224 0 455.5 0C455.776 0 456 0.223858 456 0.5V4.5C456 4.77614 455.776 5 455.5 5C455.224 5 455 4.77614 455 4.5V0.5Z" fill="#666F8D"/>
<path opacity="0.3" d="M457.5 0.5C457.5 0.223858 457.724 0 458 0C458.276 0 458.5 0.223858 458.5 0.5V4.5C458.5 4.77614 458.276 5 458 5C457.724 5 457.5 4.77614 457.5 4.5V0.5Z" fill="#666F8D"/>
<path opacity="0.3" d="M460 0.5C460 0.223858 460.224 0 460.5 0C460.776 0 461 0.223858 461 0.5V4.5C461 4.77614 460.776 5 460.5 5C460.224 5 460 4.77614 460 4.5V0.5Z" fill="#666F8D"/>
<path opacity="0.3" d="M462.5 0.5C462.5 0.223858 462.724 0 463 0C463.276 0 463.5 0.223858 463.5 0.5V4.5C463.5 4.77614 463.276 5 463 5C462.724 5 462.5 4.77614 462.5 4.5V0.5Z" fill="#666F8D"/>
<path opacity="0.3" d="M465 0.5C465 0.223858 465.224 0 465.5 0C465.776 0 466 0.223858 466 0.5V4.5C466 4.77614 465.776 5 465.5 5C465.224 5 465 4.77614 465 4.5V0.5Z" fill="#666F8D"/>
<path opacity="0.3" d="M467.5 0.5C467.5 0.223858 467.724 0 468 0C468.276 0 468.5 0.223858 468.5 0.5V4.5C468.5 4.77614 468.276 5 468 5C467.724 5 467.5 4.77614 467.5 4.5V0.5Z" fill="#666F8D"/>
<path opacity="0.3" d="M470 0.5C470 0.223858 470.224 0 470.5 0C470.776 0 471 0.223858 471 0.5V4.5C471 4.77614 470.776 5 470.5 5C470.224 5 470 4.77614 470 4.5V0.5Z" fill="#666F8D"/>
<path opacity="0.3" d="M472.5 0.5C472.5 0.223858 472.724 0 473 0C473.276 0 473.5 0.223858 473.5 0.5V4.5C473.5 4.77614 473.276 5 473 5C472.724 5 472.5 4.77614 472.5 4.5V0.5Z" fill="#666F8D"/>
<path opacity="0.3" d="M475 0.5C475 0.223858 475.224 0 475.5 0C475.776 0 476 0.223858 476 0.5V4.5C476 4.77614 475.776 5 475.5 5C475.224 5 475 4.77614 475 4.5V0.5Z" fill="#666F8D"/>
<path opacity="0.3" d="M477.5 0.5C477.5 0.223858 477.724 0 478 0C478.276 0 478.5 0.223858 478.5 0.5V4.5C478.5 4.77614 478.276 5 478 5C477.724 5 477.5 4.77614 477.5 4.5V0.5Z" fill="#666F8D"/>
<path opacity="0.3" d="M480 0.5C480 0.223858 480.224 0 480.5 0C480.776 0 481 0.223858 481 0.5V4.5C481 4.77614 480.776 5 480.5 5C480.224 5 480 4.77614 480 4.5V0.5Z" fill="#666F8D"/>
<path opacity="0.3" d="M482.5 0.5C482.5 0.223858 482.724 0 483 0C483.276 0 483.5 0.223858 483.5 0.5V4.5C483.5 4.77614 483.276 5 483 5C482.724 5 482.5 4.77614 482.5 4.5V0.5Z" fill="#666F8D"/>
<path opacity="0.3" d="M485 0.5C485 0.223858 485.224 0 485.5 0C485.776 0 486 0.223858 486 0.5V4.5C486 4.77614 485.776 5 485.5 5C485.224 5 485 4.77614 485 4.5V0.5Z" fill="#666F8D"/>
<path opacity="0.3" d="M487.5 0.5C487.5 0.223858 487.724 0 488 0C488.276 0 488.5 0.223858 488.5 0.5V4.5C488.5 4.77614 488.276 5 488 5C487.724 5 487.5 4.77614 487.5 4.5V0.5Z" fill="#666F8D"/>
<path opacity="0.3" d="M490 0.5C490 0.223858 490.224 0 490.5 0C490.776 0 491 0.223858 491 0.5V4.5C491 4.77614 490.776 5 490.5 5C490.224 5 490 4.77614 490 4.5V0.5Z" fill="#666F8D"/>
<path opacity="0.3" d="M492.5 0.5C492.5 0.223858 492.724 0 493 0C493.276 0 493.5 0.223858 493.5 0.5V4.5C493.5 4.77614 493.276 5 493 5C492.724 5 492.5 4.77614 492.5 4.5V0.5Z" fill="#666F8D"/>
<path opacity="0.3" d="M495 0.5C495 0.223858 495.224 0 495.5 0C495.776 0 496 0.223858 496 0.5V4.5C496 4.77614 495.776 5 495.5 5C495.224 5 495 4.77614 495 4.5V0.5Z" fill="#666F8D"/>
<path opacity="0.3" d="M497.5 0.5C497.5 0.223858 497.724 0 498 0C498.276 0 498.5 0.223858 498.5 0.5V4.5C498.5 4.77614 498.276 5 498 5C497.724 5 497.5 4.77614 497.5 4.5V0.5Z" fill="#666F8D"/>
<path opacity="0.3" d="M500 0.5C500 0.223858 500.224 0 500.5 0C500.776 0 501 0.223858 501 0.5V4.5C501 4.77614 500.776 5 500.5 5C500.224 5 500 4.77614 500 4.5V0.5Z" fill="#666F8D"/>
<path opacity="0.3" d="M502.5 0.5C502.5 0.223858 502.724 0 503 0C503.276 0 503.5 0.223858 503.5 0.5V4.5C503.5 4.77614 503.276 5 503 5C502.724 5 502.5 4.77614 502.5 4.5V0.5Z" fill="#666F8D"/>
<path opacity="0.3" d="M505 0.5C505 0.223858 505.224 0 505.5 0C505.776 0 506 0.223858 506 0.5V4.5C506 4.77614 505.776 5 505.5 5C505.224 5 505 4.77614 505 4.5V0.5Z" fill="#666F8D"/>
<path opacity="0.3" d="M507.5 0.5C507.5 0.223858 507.724 0 508 0C508.276 0 508.5 0.223858 508.5 0.5V4.5C508.5 4.77614 508.276 5 508 5C507.724 5 507.5 4.77614 507.5 4.5V0.5Z" fill="#666F8D"/>
<path opacity="0.3" d="M510 0.5C510 0.223858 510.224 0 510.5 0C510.776 0 511 0.223858 511 0.5V4.5C511 4.77614 510.776 5 510.5 5C510.224 5 510 4.77614 510 4.5V0.5Z" fill="#666F8D"/>
<path opacity="0.3" d="M512.5 0.5C512.5 0.223858 512.724 0 513 0C513.276 0 513.5 0.223858 513.5 0.5V4.5C513.5 4.77614 513.276 5 513 5C512.724 5 512.5 4.77614 512.5 4.5V0.5Z" fill="#666F8D"/>
<path opacity="0.3" d="M515 0.5C515 0.223858 515.224 0 515.5 0C515.776 0 516 0.223858 516 0.5V4.5C516 4.77614 515.776 5 515.5 5C515.224 5 515 4.77614 515 4.5V0.5Z" fill="#666F8D"/>
<path opacity="0.3" d="M517.5 0.5C517.5 0.223858 517.724 0 518 0C518.276 0 518.5 0.223858 518.5 0.5V4.5C518.5 4.77614 518.276 5 518 5C517.724 5 517.5 4.77614 517.5 4.5V0.5Z" fill="#666F8D"/>
<path opacity="0.3" d="M520 0.5C520 0.223858 520.224 0 520.5 0C520.776 0 521 0.223858 521 0.5V4.5C521 4.77614 520.776 5 520.5 5C520.224 5 520 4.77614 520 4.5V0.5Z" fill="#666F8D"/>
<path opacity="0.3" d="M522.5 0.5C522.5 0.223858 522.724 0 523 0C523.276 0 523.5 0.223858 523.5 0.5V4.5C523.5 4.77614 523.276 5 523 5C522.724 5 522.5 4.77614 522.5 4.5V0.5Z" fill="#666F8D"/>
<path opacity="0.3" d="M525 0.5C525 0.223858 525.224 0 525.5 0C525.776 0 526 0.223858 526 0.5V4.5C526 4.77614 525.776 5 525.5 5C525.224 5 525 4.77614 525 4.5V0.5Z" fill="#666F8D"/>
<path opacity="0.3" d="M527.5 0.5C527.5 0.223858 527.724 0 528 0C528.276 0 528.5 0.223858 528.5 0.5V4.5C528.5 4.77614 528.276 5 528 5C527.724 5 527.5 4.77614 527.5 4.5V0.5Z" fill="#666F8D"/>
<path opacity="0.3" d="M530 0.5C530 0.223858 530.224 0 530.5 0C530.776 0 531 0.223858 531 0.5V4.5C531 4.77614 530.776 5 530.5 5C530.224 5 530 4.77614 530 4.5V0.5Z" fill="#666F8D"/>
<path opacity="0.3" d="M532.5 0.5C532.5 0.223858 532.724 0 533 0C533.276 0 533.5 0.223858 533.5 0.5V4.5C533.5 4.77614 533.276 5 533 5C532.724 5 532.5 4.77614 532.5 4.5V0.5Z" fill="#666F8D"/>
<path opacity="0.3" d="M535 0.5C535 0.223858 535.224 0 535.5 0C535.776 0 536 0.223858 536 0.5V4.5C536 4.77614 535.776 5 535.5 5C535.224 5 535 4.77614 535 4.5V0.5Z" fill="#666F8D"/>
<path opacity="0.3" d="M537.5 0.5C537.5 0.223858 537.724 0 538 0C538.276 0 538.5 0.223858 538.5 0.5V4.5C538.5 4.77614 538.276 5 538 5C537.724 5 537.5 4.77614 537.5 4.5V0.5Z" fill="#666F8D"/>
<path opacity="0.3" d="M540 0.5C540 0.223858 540.224 0 540.5 0C540.776 0 541 0.223858 541 0.5V4.5C541 4.77614 540.776 5 540.5 5C540.224 5 540 4.77614 540 4.5V0.5Z" fill="#666F8D"/>
<path opacity="0.3" d="M542.5 0.5C542.5 0.223858 542.724 0 543 0C543.276 0 543.5 0.223858 543.5 0.5V4.5C543.5 4.77614 543.276 5 543 5C542.724 5 542.5 4.77614 542.5 4.5V0.5Z" fill="#666F8D"/>
<path opacity="0.3" d="M545 0.5C545 0.223858 545.224 0 545.5 0C545.776 0 546 0.223858 546 0.5V4.5C546 4.77614 545.776 5 545.5 5C545.224 5 545 4.77614 545 4.5V0.5Z" fill="#666F8D"/>
<path opacity="0.3" d="M547.5 0.5C547.5 0.223858 547.724 0 548 0C548.276 0 548.5 0.223858 548.5 0.5V4.5C548.5 4.77614 548.276 5 548 5C547.724 5 547.5 4.77614 547.5 4.5V0.5Z" fill="#666F8D"/>
<path opacity="0.3" d="M550 0.5C550 0.223858 550.224 0 550.5 0C550.776 0 551 0.223858 551 0.5V4.5C551 4.77614 550.776 5 550.5 5C550.224 5 550 4.77614 550 4.5V0.5Z" fill="#666F8D"/>
<path opacity="0.3" d="M552.5 0.5C552.5 0.223858 552.724 0 553 0C553.276 0 553.5 0.223858 553.5 0.5V4.5C553.5 4.77614 553.276 5 553 5C552.724 5 552.5 4.77614 552.5 4.5V0.5Z" fill="#666F8D"/>
<path opacity="0.3" d="M555 0.5C555 0.223858 555.224 0 555.5 0C555.776 0 556 0.223858 556 0.5V4.5C556 4.77614 555.776 5 555.5 5C555.224 5 555 4.77614 555 4.5V0.5Z" fill="#666F8D"/>
<path opacity="0.3" d="M557.5 0.5C557.5 0.223858 557.724 0 558 0C558.276 0 558.5 0.223858 558.5 0.5V4.5C558.5 4.77614 558.276 5 558 5C557.724 5 557.5 4.77614 557.5 4.5V0.5Z" fill="#666F8D"/>
<path opacity="0.3" d="M560 0.5C560 0.223858 560.224 0 560.5 0C560.776 0 561 0.223858 561 0.5V4.5C561 4.77614 560.776 5 560.5 5C560.224 5 560 4.77614 560 4.5V0.5Z" fill="#666F8D"/>
<path opacity="0.3" d="M562.5 0.5C562.5 0.223858 562.724 0 563 0C563.276 0 563.5 0.223858 563.5 0.5V4.5C563.5 4.77614 563.276 5 563 5C562.724 5 562.5 4.77614 562.5 4.5V0.5Z" fill="#666F8D"/>
<path opacity="0.3" d="M565 0.5C565 0.223858 565.224 0 565.5 0C565.776 0 566 0.223858 566 0.5V4.5C566 4.77614 565.776 5 565.5 5C565.224 5 565 4.77614 565 4.5V0.5Z" fill="#666F8D"/>
<path opacity="0.3" d="M567.5 0.5C567.5 0.223858 567.724 0 568 0C568.276 0 568.5 0.223858 568.5 0.5V4.5C568.5 4.77614 568.276 5 568 5C567.724 5 567.5 4.77614 567.5 4.5V0.5Z" fill="#666F8D"/>
<path opacity="0.3" d="M570 0.5C570 0.223858 570.224 0 570.5 0C570.776 0 571 0.223858 571 0.5V4.5C571 4.77614 570.776 5 570.5 5C570.224 5 570 4.77614 570 4.5V0.5Z" fill="#666F8D"/>
<path opacity="0.3" d="M572.5 0.5C572.5 0.223858 572.724 0 573 0C573.276 0 573.5 0.223858 573.5 0.5V4.5C573.5 4.77614 573.276 5 573 5C572.724 5 572.5 4.77614 572.5 4.5V0.5Z" fill="#666F8D"/>
<path opacity="0.3" d="M575 0.5C575 0.223858 575.224 0 575.5 0C575.776 0 576 0.223858 576 0.5V4.5C576 4.77614 575.776 5 575.5 5C575.224 5 575 4.77614 575 4.5V0.5Z" fill="#666F8D"/>
<path opacity="0.3" d="M577.5 0.5C577.5 0.223858 577.724 0 578 0C578.276 0 578.5 0.223858 578.5 0.5V4.5C578.5 4.77614 578.276 5 578 5C577.724 5 577.5 4.77614 577.5 4.5V0.5Z" fill="#666F8D"/>
<path opacity="0.3" d="M580 0.5C580 0.223858 580.224 0 580.5 0C580.776 0 581 0.223858 581 0.5V4.5C581 4.77614 580.776 5 580.5 5C580.224 5 580 4.77614 580 4.5V0.5Z" fill="#666F8D"/>
<path opacity="0.3" d="M582.5 0.5C582.5 0.223858 582.724 0 583 0C583.276 0 583.5 0.223858 583.5 0.5V4.5C583.5 4.77614 583.276 5 583 5C582.724 5 582.5 4.77614 582.5 4.5V0.5Z" fill="#666F8D"/>
<path opacity="0.3" d="M585 0.5C585 0.223858 585.224 0 585.5 0C585.776 0 586 0.223858 586 0.5V4.5C586 4.77614 585.776 5 585.5 5C585.224 5 585 4.77614 585 4.5V0.5Z" fill="#666F8D"/>
<path opacity="0.3" d="M587.5 0.5C587.5 0.223858 587.724 0 588 0C588.276 0 588.5 0.223858 588.5 0.5V4.5C588.5 4.77614 588.276 5 588 5C587.724 5 587.5 4.77614 587.5 4.5V0.5Z" fill="#666F8D"/>
<path opacity="0.3" d="M590 0.5C590 0.223858 590.224 0 590.5 0C590.776 0 591 0.223858 591 0.5V4.5C591 4.77614 590.776 5 590.5 5C590.224 5 590 4.77614 590 4.5V0.5Z" fill="#666F8D"/>
<path opacity="0.3" d="M592.5 0.5C592.5 0.223858 592.724 0 593 0C593.276 0 593.5 0.223858 593.5 0.5V4.5C593.5 4.77614 593.276 5 593 5C592.724 5 592.5 4.77614 592.5 4.5V0.5Z" fill="#666F8D"/>
<path opacity="0.3" d="M595 0.5C595 0.223858 595.224 0 595.5 0C595.776 0 596 0.223858 596 0.5V4.5C596 4.77614 595.776 5 595.5 5C595.224 5 595 4.77614 595 4.5V0.5Z" fill="#666F8D"/>
<path opacity="0.3" d="M597.5 0.5C597.5 0.223858 597.724 0 598 0C598.276 0 598.5 0.223858 598.5 0.5V4.5C598.5 4.77614 598.276 5 598 5C597.724 5 597.5 4.77614 597.5 4.5V0.5Z" fill="#666F8D"/>
<path opacity="0.3" d="M600 0.5C600 0.223858 600.224 0 600.5 0C600.776 0 601 0.223858 601 0.5V4.5C601 4.77614 600.776 5 600.5 5C600.224 5 600 4.77614 600 4.5V0.5Z" fill="#666F8D"/>
<path opacity="0.3" d="M602.5 0.5C602.5 0.223858 602.724 0 603 0C603.276 0 603.5 0.223858 603.5 0.5V4.5C603.5 4.77614 603.276 5 603 5C602.724 5 602.5 4.77614 602.5 4.5V0.5Z" fill="#666F8D"/>
<path opacity="0.3" d="M605 0.5C605 0.223858 605.224 0 605.5 0C605.776 0 606 0.223858 606 0.5V4.5C606 4.77614 605.776 5 605.5 5C605.224 5 605 4.77614 605 4.5V0.5Z" fill="#666F8D"/>
<path opacity="0.3" d="M607.5 0.5C607.5 0.223858 607.724 0 608 0C608.276 0 608.5 0.223858 608.5 0.5V4.5C608.5 4.77614 608.276 5 608 5C607.724 5 607.5 4.77614 607.5 4.5V0.5Z" fill="#666F8D"/>
<path opacity="0.3" d="M610 0.5C610 0.223858 610.224 0 610.5 0C610.776 0 611 0.223858 611 0.5V4.5C611 4.77614 610.776 5 610.5 5C610.224 5 610 4.77614 610 4.5V0.5Z" fill="#666F8D"/>
<path opacity="0.3" d="M612.5 0.5C612.5 0.223858 612.724 0 613 0C613.276 0 613.5 0.223858 613.5 0.5V4.5C613.5 4.77614 613.276 5 613 5C612.724 5 612.5 4.77614 612.5 4.5V0.5Z" fill="#666F8D"/>
<path opacity="0.3" d="M615 0.5C615 0.223858 615.224 0 615.5 0C615.776 0 616 0.223858 616 0.5V4.5C616 4.77614 615.776 5 615.5 5C615.224 5 615 4.77614 615 4.5V0.5Z" fill="#666F8D"/>
<path opacity="0.3" d="M617.5 0.5C617.5 0.223858 617.724 0 618 0C618.276 0 618.5 0.223858 618.5 0.5V4.5C618.5 4.77614 618.276 5 618 5C617.724 5 617.5 4.77614 617.5 4.5V0.5Z" fill="#666F8D"/>
<path opacity="0.3" d="M620 0.5C620 0.223858 620.224 0 620.5 0C620.776 0 621 0.223858 621 0.5V4.5C621 4.77614 620.776 5 620.5 5C620.224 5 620 4.77614 620 4.5V0.5Z" fill="#666F8D"/>
<path opacity="0.3" d="M622.5 0.5C622.5 0.223858 622.724 0 623 0C623.276 0 623.5 0.223858 623.5 0.5V4.5C623.5 4.77614 623.276 5 623 5C622.724 5 622.5 4.77614 622.5 4.5V0.5Z" fill="#666F8D"/>
<path opacity="0.3" d="M625 0.5C625 0.223858 625.224 0 625.5 0C625.776 0 626 0.223858 626 0.5V4.5C626 4.77614 625.776 5 625.5 5C625.224 5 625 4.77614 625 4.5V0.5Z" fill="#666F8D"/>
<path opacity="0.3" d="M627.5 0.5C627.5 0.223858 627.724 0 628 0C628.276 0 628.5 0.223858 628.5 0.5V4.5C628.5 4.77614 628.276 5 628 5C627.724 5 627.5 4.77614 627.5 4.5V0.5Z" fill="#666F8D"/>
<path opacity="0.3" d="M630 0.5C630 0.223858 630.224 0 630.5 0C630.776 0 631 0.223858 631 0.5V4.5C631 4.77614 630.776 5 630.5 5C630.224 5 630 4.77614 630 4.5V0.5Z" fill="#666F8D"/>
<path opacity="0.3" d="M632.5 0.5C632.5 0.223858 632.724 0 633 0C633.276 0 633.5 0.223858 633.5 0.5V4.5C633.5 4.77614 633.276 5 633 5C632.724 5 632.5 4.77614 632.5 4.5V0.5Z" fill="#666F8D"/>
<path opacity="0.3" d="M635 0.5C635 0.223858 635.224 0 635.5 0C635.776 0 636 0.223858 636 0.5V4.5C636 4.77614 635.776 5 635.5 5C635.224 5 635 4.77614 635 4.5V0.5Z" fill="#666F8D"/>
<path opacity="0.3" d="M637.5 0.5C637.5 0.223858 637.724 0 638 0C638.276 0 638.5 0.223858 638.5 0.5V4.5C638.5 4.77614 638.276 5 638 5C637.724 5 637.5 4.77614 637.5 4.5V0.5Z" fill="#666F8D"/>
<path opacity="0.3" d="M640 0.5C640 0.223858 640.224 0 640.5 0C640.776 0 641 0.223858 641 0.5V4.5C641 4.77614 640.776 5 640.5 5C640.224 5 640 4.77614 640 4.5V0.5Z" fill="#666F8D"/>
<path opacity="0.3" d="M642.5 0.5C642.5 0.223858 642.724 0 643 0C643.276 0 643.5 0.223858 643.5 0.5V4.5C643.5 4.77614 643.276 5 643 5C642.724 5 642.5 4.77614 642.5 4.5V0.5Z" fill="#666F8D"/>
<path opacity="0.3" d="M645 0.5C645 0.223858 645.224 0 645.5 0C645.776 0 646 0.223858 646 0.5V4.5C646 4.77614 645.776 5 645.5 5C645.224 5 645 4.77614 645 4.5V0.5Z" fill="#666F8D"/>
<path opacity="0.3" d="M647.5 0.5C647.5 0.223858 647.724 0 648 0C648.276 0 648.5 0.223858 648.5 0.5V4.5C648.5 4.77614 648.276 5 648 5C647.724 5 647.5 4.77614 647.5 4.5V0.5Z" fill="#666F8D"/>
<path opacity="0.3" d="M650 0.5C650 0.223858 650.224 0 650.5 0C650.776 0 651 0.223858 651 0.5V4.5C651 4.77614 650.776 5 650.5 5C650.224 5 650 4.77614 650 4.5V0.5Z" fill="#666F8D"/>
<path opacity="0.3" d="M652.5 0.5C652.5 0.223858 652.724 0 653 0C653.276 0 653.5 0.223858 653.5 0.5V4.5C653.5 4.77614 653.276 5 653 5C652.724 5 652.5 4.77614 652.5 4.5V0.5Z" fill="#666F8D"/>
<path opacity="0.3" d="M655 0.5C655 0.223858 655.224 0 655.5 0C655.776 0 656 0.223858 656 0.5V4.5C656 4.77614 655.776 5 655.5 5C655.224 5 655 4.77614 655 4.5V0.5Z" fill="#666F8D"/>
<path opacity="0.3" d="M657.5 0.5C657.5 0.223858 657.724 0 658 0C658.276 0 658.5 0.223858 658.5 0.5V4.5C658.5 4.77614 658.276 5 658 5C657.724 5 657.5 4.77614 657.5 4.5V0.5Z" fill="#666F8D"/>
<path opacity="0.3" d="M660 0.5C660 0.223858 660.224 0 660.5 0C660.776 0 661 0.223858 661 0.5V4.5C661 4.77614 660.776 5 660.5 5C660.224 5 660 4.77614 660 4.5V0.5Z" fill="#666F8D"/>
<path opacity="0.3" d="M662.5 0.5C662.5 0.223858 662.724 0 663 0C663.276 0 663.5 0.223858 663.5 0.5V4.5C663.5 4.77614 663.276 5 663 5C662.724 5 662.5 4.77614 662.5 4.5V0.5Z" fill="#666F8D"/>
<path opacity="0.3" d="M665 0.5C665 0.223858 665.224 0 665.5 0C665.776 0 666 0.223858 666 0.5V4.5C666 4.77614 665.776 5 665.5 5C665.224 5 665 4.77614 665 4.5V0.5Z" fill="#666F8D"/>
<path opacity="0.3" d="M667.5 0.5C667.5 0.223858 667.724 0 668 0C668.276 0 668.5 0.223858 668.5 0.5V4.5C668.5 4.77614 668.276 5 668 5C667.724 5 667.5 4.77614 667.5 4.5V0.5Z" fill="#666F8D"/>
<path opacity="0.3" d="M670 0.5C670 0.223858 670.224 0 670.5 0C670.776 0 671 0.223858 671 0.5V4.5C671 4.77614 670.776 5 670.5 5C670.224 5 670 4.77614 670 4.5V0.5Z" fill="#666F8D"/>
<path opacity="0.3" d="M672.5 0.5C672.5 0.223858 672.724 0 673 0C673.276 0 673.5 0.223858 673.5 0.5V4.5C673.5 4.77614 673.276 5 673 5C672.724 5 672.5 4.77614 672.5 4.5V0.5Z" fill="#666F8D"/>
<path opacity="0.3" d="M675 0.5C675 0.223858 675.224 0 675.5 0C675.776 0 676 0.223858 676 0.5V4.5C676 4.77614 675.776 5 675.5 5C675.224 5 675 4.77614 675 4.5V0.5Z" fill="#666F8D"/>
<path opacity="0.3" d="M677.5 0.5C677.5 0.223858 677.724 0 678 0C678.276 0 678.5 0.223858 678.5 0.5V4.5C678.5 4.77614 678.276 5 678 5C677.724 5 677.5 4.77614 677.5 4.5V0.5Z" fill="#666F8D"/>
<path opacity="0.3" d="M680 0.5C680 0.223858 680.224 0 680.5 0C680.776 0 681 0.223858 681 0.5V4.5C681 4.77614 680.776 5 680.5 5C680.224 5 680 4.77614 680 4.5V0.5Z" fill="#666F8D"/>
<path opacity="0.3" d="M682.5 0.5C682.5 0.223858 682.724 0 683 0C683.276 0 683.5 0.223858 683.5 0.5V4.5C683.5 4.77614 683.276 5 683 5C682.724 5 682.5 4.77614 682.5 4.5V0.5Z" fill="#666F8D"/>
<path opacity="0.3" d="M685 0.5C685 0.223858 685.224 0 685.5 0C685.776 0 686 0.223858 686 0.5V4.5C686 4.77614 685.776 5 685.5 5C685.224 5 685 4.77614 685 4.5V0.5Z" fill="#666F8D"/>
<path opacity="0.3" d="M687.5 0.5C687.5 0.223858 687.724 0 688 0C688.276 0 688.5 0.223858 688.5 0.5V4.5C688.5 4.77614 688.276 5 688 5C687.724 5 687.5 4.77614 687.5 4.5V0.5Z" fill="#666F8D"/>
<path opacity="0.3" d="M690 0.5C690 0.223858 690.224 0 690.5 0C690.776 0 691 0.223858 691 0.5V4.5C691 4.77614 690.776 5 690.5 5C690.224 5 690 4.77614 690 4.5V0.5Z" fill="#666F8D"/>
</svg>
